HIERARCHY
ROOT cup1
{
	OFFSET 0.000000 0.000000 0.000000
	CHANNELS 6 Xposition Yposition Zposition Yrotation Xrotation Zrotation
	End Site
	{
		OFFSET 0.000000 0.000000 0.000000
	}
}
MOTION
Frames: 189
Frame Time: 0.008333334
1.137328 3.518722 2.831842 -24.467830 -0.819305 1.091572 
1.137433 3.518728 2.832032 -24.484530 -0.831238 1.088178 
1.137484 3.518517 2.832247 -24.462920 -0.851563 1.045474 
1.137275 3.518443 2.831956 -24.471890 -0.862366 1.056940 
1.137066 3.518368 2.831666 -24.480900 -0.873138 1.068407 
1.136856 3.518294 2.831375 -24.489870 -0.883911 1.079875 
1.136647 3.518220 2.831085 -24.498840 -0.894684 1.091346 
1.136438 3.518145 2.830794 -24.507840 -0.905457 1.102818 
1.136229 3.518071 2.830504 -24.516820 -0.916229 1.114292 
1.136020 3.517997 2.830213 -24.525820 -0.927002 1.125767 
1.135810 3.517922 2.829923 -24.534820 -0.937775 1.137245 
1.135601 3.517848 2.829632 -24.543790 -0.948547 1.148724 
1.135615 3.517926 2.829020 -24.544100 -0.887909 1.162165 
1.135968 3.517742 2.828784 -24.518860 -0.851807 1.185329 
1.136029 3.517220 2.828124 -24.503570 -0.656311 1.180501 
1.135819 3.517323 2.828083 -24.524510 -0.631805 1.196306 
1.135005 3.517746 2.827560 -24.683170 -0.632050 0.993905 
1.134150 3.518311 2.828263 -24.719300 -1.027069 1.076971 
1.133984 3.518447 2.828205 -24.695070 -0.985596 1.072148 
1.135870 3.516892 2.828673 -24.531280 -0.527161 1.187966 
1.135250 3.517641 2.829541 -24.562320 -0.952179 1.225156 
1.136570 3.516470 2.829685 -24.439060 -0.519928 1.274817 
1.136579 3.516717 2.829843 -24.414700 -0.541473 1.274617 
1.136805 3.516769 2.830146 -24.431150 -0.611420 1.310491 
1.136360 3.516931 2.829937 -24.473080 -0.582672 1.212495 
1.134909 3.518128 2.829967 -24.563260 -1.067780 1.201241 
1.136582 3.516710 2.829595 -24.418300 -0.470154 1.229819 
1.136029 3.517252 2.829209 -24.485810 -0.602722 1.231231 
1.134862 3.517657 2.828879 -24.615080 -0.854828 1.184244 
1.135936 3.517035 2.828537 -24.463320 -0.590027 1.315031 
1.133891 3.518544 2.828408 -24.727290 -1.046417 1.060088 
1.134021 3.518823 2.828073 -24.696900 -1.067627 1.075076 
1.134191 3.518854 2.828202 -24.721860 -1.073822 1.070123 
1.134075 3.518898 2.828045 -24.733220 -1.101776 1.105153 
1.134029 3.518770 2.828241 -24.731960 -1.094910 1.099975 
1.134031 3.518744 2.828250 -24.714360 -1.108795 1.113937 
1.133676 3.518862 2.828303 -24.758450 -1.194611 1.089955 
1.133327 3.518620 2.828668 -24.726680 -1.348114 1.140686 
1.134295 3.518031 2.829298 -24.630490 -1.128510 1.192453 
1.134507 3.517904 2.829351 -24.611270 -1.067383 1.213418 
1.134798 3.517394 2.829759 -24.586610 -1.108002 1.249323 
1.134825 3.517540 2.829964 -24.571720 -1.091125 1.205324 
1.134819 3.517745 2.830153 -24.519010 -1.063477 1.237389 
1.135432 3.517955 2.829463 -24.487920 -0.895142 1.248255 
1.135005 3.517698 2.829596 -24.534420 -1.054871 1.274978 
1.134894 3.517678 2.829247 -24.537690 -1.035095 1.314044 
1.135594 3.517153 2.828913 -24.464050 -0.586609 1.212155 
1.135123 3.517825 2.828727 -24.526460 -0.997406 1.344511 
1.134760 3.518129 2.828915 -24.639650 -1.001373 1.178069 
1.135167 3.517463 2.828661 -24.525630 -0.842102 1.231177 
1.135380 3.517329 2.828253 -24.582490 -0.636993 1.153178 
1.135503 3.517465 2.828388 -24.526340 -0.659424 1.266946 
1.135444 3.517477 2.828334 -24.512910 -0.703156 1.260161 
1.135155 3.517732 2.828850 -24.559600 -0.847534 1.247652 
1.136082 3.517317 2.828437 -24.467680 -0.618317 1.227478 
1.135115 3.517569 2.828861 -24.507350 -0.772949 1.207172 
1.135718 3.517374 2.828611 -24.526670 -0.598694 1.169290 
1.136263 3.517297 2.828492 -24.446230 -0.671783 1.333668 
1.135269 3.517878 2.829148 -24.561370 -0.959839 1.246048 
1.135597 3.517994 2.828921 -24.520390 -0.915894 1.267259 
1.136394 3.517395 2.828737 -24.465820 -0.624695 1.250503 
1.136270 3.517453 2.828921 -24.503170 -0.619263 1.165910 
1.136475 3.517384 2.828676 -24.432310 -0.592194 1.267181 
1.136329 3.517122 2.828386 -24.495700 -0.511963 1.188334 
1.136348 3.516878 2.828608 -24.442170 -0.454224 1.227648 
1.136736 3.516952 2.828470 -24.458130 -0.470642 1.238418 
1.136470 3.516966 2.828411 -24.499050 -0.473358 1.220461 
1.136511 3.516988 2.828303 -24.478030 -0.478333 1.225864 
1.136323 3.517138 2.828317 -24.541320 -0.482941 1.212283 
1.136024 3.517696 2.828156 -24.468260 -0.667969 1.434233 
1.136326 3.516974 2.828757 -24.455810 -0.695129 1.262577 
1.136291 3.516646 2.828800 -24.467560 -0.602234 1.281767 
1.135908 3.517536 2.829082 -24.527470 -0.856995 1.260169 
1.136313 3.517005 2.828958 -24.469600 -0.689575 1.236680 
1.135943 3.517060 2.828904 -24.457640 -0.739227 1.306616 
1.135888 3.516662 2.828875 -24.421510 -0.571137 1.264956 
1.136145 3.516529 2.828944 -24.486820 -0.563904 1.193869 
1.135161 3.517525 2.829344 -24.460630 -0.886841 1.271216 
1.135881 3.516566 2.829049 -24.436370 -0.536377 1.201884 
1.136245 3.516982 2.828945 -24.483670 -0.696259 1.220053 
1.136028 3.516797 2.829062 -24.472750 -0.730591 1.231816 
1.136253 3.516350 2.829052 -24.418210 -0.566834 1.257171 
1.136111 3.516870 2.829057 -24.423310 -0.688690 1.254392 
1.136102 3.516461 2.828712 -24.468260 -0.708130 1.344536 
1.136058 3.516460 2.829129 -24.455810 -0.791809 1.348164 
1.135852 3.516134 2.829129 -24.485170 -0.642212 1.235223 
1.136109 3.516901 2.828755 -24.420350 -0.698608 1.292389 
1.136156 3.516945 2.828538 -24.454620 -0.766357 1.317035 
1.136137 3.517105 2.828645 -24.462950 -0.741699 1.257720 
1.136354 3.516244 2.828834 -24.430270 -0.456543 1.244431 
1.136310 3.516213 2.828788 -24.443600 -0.489441 1.303449 
1.136251 3.516573 2.829132 -24.415070 -0.538208 1.245485 
1.136371 3.516502 2.829030 -24.407840 -0.556427 1.262937 
1.136402 3.516561 2.828893 -24.409330 -0.586548 1.294058 
1.136296 3.516244 2.828933 -24.401060 -0.471832 1.287549 
1.136383 3.516177 2.828989 -24.405610 -0.449249 1.256810 
1.136324 3.516600 2.828858 -24.377080 -0.567322 1.285423 
1.136250 3.516171 2.828966 -24.367770 -0.393494 1.217301 
1.136506 3.515936 2.828844 -24.453220 -0.444336 1.239649 
1.136164 3.516012 2.828964 -24.413880 -0.420380 1.270133 
1.135933 3.515930 2.829036 -24.415130 -0.473114 1.251767 
1.136028 3.516030 2.828999 -24.407870 -0.504120 1.278388 
1.136225 3.516155 2.828628 -24.415590 -0.528137 1.309750 
1.135934 3.516675 2.829027 -24.432620 -0.664215 1.265774 
1.136119 3.516309 2.828968 -24.419860 -0.655853 1.341460 
1.136173 3.515864 2.829095 -24.446260 -0.484345 1.221258 
1.136194 3.516222 2.829034 -24.460820 -0.635376 1.274051 
1.135988 3.516435 2.829046 -24.408330 -0.618195 1.311173 
1.136103 3.516320 2.828994 -24.440430 -0.670654 1.315224 
1.136450 3.516272 2.829062 -24.420140 -0.408539 1.204354 
1.136574 3.516717 2.828855 -24.378300 -0.523651 1.353302 
1.136544 3.516235 2.828731 -24.405430 -0.346680 1.235439 
1.136484 3.516310 2.828908 -24.365140 -0.241303 1.170725 
1.136525 3.516386 2.828607 -24.361600 -0.308838 1.275224 
1.135409 3.517689 2.829415 -24.493040 -0.965668 1.225460 
1.136622 3.516605 2.828513 -24.390260 -0.342133 1.255594 
1.136266 3.516811 2.828813 -24.367680 -0.460236 1.278681 
1.136359 3.517159 2.828592 -24.426180 -0.622223 1.241680 
1.136061 3.517057 2.828833 -24.507390 -0.662903 1.190687 
1.136236 3.517056 2.828720 -24.446620 -0.594910 1.241201 
1.136389 3.517276 2.828528 -24.427280 -0.620544 1.286489 
1.136344 3.517234 2.828462 -24.425080 -0.677033 1.377743 
1.135646 3.517864 2.828874 -24.509310 -0.925812 1.262339 
1.134985 3.518366 2.828794 -24.522280 -0.995453 1.226076 
1.135338 3.517827 2.829053 -24.553040 -0.932495 1.255321 
1.135166 3.517959 2.828779 -24.587160 -0.994171 1.204854 
1.135404 3.517744 2.829045 -24.553890 -0.867401 1.193433 
1.135150 3.517971 2.829022 -24.508030 -0.958984 1.315400 
1.134979 3.518174 2.829097 -24.537170 -1.057007 1.214582 
1.135287 3.517862 2.828771 -24.502440 -0.954590 1.339587 
1.134520 3.518644 2.828436 -24.684110 -1.031799 1.077236 
1.135347 3.517984 2.828883 -24.505890 -0.928619 1.250878 
1.134286 3.518491 2.828427 -24.665680 -1.032379 1.098176 
1.134828 3.518085 2.828841 -24.546780 -0.921997 1.244644 
1.135409 3.517928 2.828935 -24.519470 -0.949402 1.262565 
1.135259 3.517804 2.828902 -24.517120 -0.871338 1.208850 
1.135203 3.518045 2.828775 -24.572050 -0.944794 1.210628 
1.134937 3.518054 2.829355 -24.551610 -0.994659 1.196966 
1.134849 3.518129 2.829258 -24.531590 -1.006714 1.242585 
1.135227 3.517746 2.829057 -24.501680 -0.831116 1.212407 
1.135186 3.517837 2.829119 -24.529600 -0.904083 1.205855 
1.135124 3.517807 2.829129 -24.520480 -0.928589 1.278100 
1.134264 3.518474 2.828328 -24.653380 -0.999207 1.103628 
1.134856 3.518157 2.829154 -24.526430 -1.001709 1.279226 
1.135379 3.517890 2.829115 -24.533780 -0.861969 1.175537 
1.135022 3.517828 2.828961 -24.588070 -0.955231 1.205849 
1.135204 3.517870 2.829095 -24.537140 -0.982849 1.299180 
1.134735 3.518080 2.829066 -24.570400 -1.005646 1.212882 
1.135014 3.517410 2.829250 -24.548740 -0.930298 1.218780 
1.135237 3.517512 2.829313 -24.565430 -0.878815 1.136401 
1.134697 3.517833 2.829092 -24.546230 -1.105042 1.323982 
1.134292 3.518185 2.828457 -24.693120 -1.012146 1.122523 
1.135073 3.517856 2.829220 -24.566470 -0.986298 1.198052 
1.134899 3.517794 2.828970 -24.593510 -1.026978 1.236317 
1.135128 3.517786 2.829320 -24.544370 -1.019989 1.265063 
1.135004 3.517773 2.829093 -24.539950 -1.009552 1.262651 
1.135127 3.517634 2.829051 -24.534790 -0.920868 1.202060 
1.134838 3.517863 2.829231 -24.556000 -1.085938 1.243683 
1.134388 3.518299 2.828512 -24.698330 -1.122314 1.074996 
1.135095 3.517843 2.829311 -24.540890 -0.994202 1.225235 
1.135185 3.517904 2.829287 -24.552670 -0.947418 1.122220 
1.135351 3.517808 2.829177 -24.563750 -0.994904 1.175678 
1.135053 3.517842 2.829215 -24.596040 -1.129486 1.243229 
1.134886 3.518074 2.829244 -24.538820 -1.082184 1.268822 
1.135206 3.517748 2.828902 -24.510960 -0.878693 1.234881 
1.135298 3.518011 2.828899 -24.504550 -0.896545 1.225599 
1.135140 3.517949 2.828981 -24.488680 -0.899506 1.237505 
1.134342 3.518570 2.828387 -24.663330 -1.028595 1.105589 
1.135266 3.517622 2.829048 -24.565670 -0.895630 1.175969 
1.135121 3.517800 2.828920 -24.523100 -0.825104 1.205795 
1.134138 3.518792 2.828425 -24.657990 -0.996674 1.074592 
1.134983 3.517910 2.829129 -24.548650 -0.925079 1.221925 
1.135144 3.518113 2.828987 -24.524870 -0.914154 1.216507 
1.135210 3.518027 2.828991 -24.529570 -0.878296 1.197760 
1.135197 3.517877 2.829092 -24.539250 -0.895081 1.193667 
1.134986 3.518148 2.829114 -24.561250 -1.035950 1.205201 
1.134964 3.518279 2.828713 -24.519320 -1.028870 1.266745 
1.135099 3.517599 2.829145 -24.566590 -0.877625 1.187787 
1.134996 3.517806 2.829065 -24.554440 -1.045898 1.340103 
1.135070 3.518013 2.828869 -24.527440 -0.978455 1.345914 
1.135314 3.518017 2.828935 -24.532900 -0.968475 1.270699 
1.134804 3.518235 2.829052 -24.517150 -1.022705 1.262892 
1.135073 3.518241 2.829117 -24.566100 -1.049225 1.194793 
1.134285 3.518646 2.828501 -24.679410 -0.975098 0.982473 
1.135285 3.518071 2.829209 -24.561860 -0.877441 1.171817 
1.135132 3.517903 2.829174 -24.552760 -0.924255 1.212037 
1.135314 3.517865 2.829301 -24.546880 -0.916473 1.201749 
1.134862 3.518385 2.828663 -24.577060 -1.057312 1.232110 
1.134653 3.518453 2.828933 -24.577700 -0.988068 1.112641 
